<?xml version="1.0" standalone="no"?>
<!DOCTYPE svg PUBLIC "-//W3C//DTD SVG 20010904//EN"
 "http://www.w3.org/TR/2001/REC-SVG-20010904/DTD/svg10.dtd">
<svg version="1.0" xmlns="http://www.w3.org/2000/svg"
 width="2000.000000pt" height="2000.000000pt" viewBox="0 0 2000.000000 2000.000000"
 preserveAspectRatio="xMidYMid meet">

<g transform="translate(0.000000,2000.000000) scale(0.100000,-0.100000)"
fill="#000000" stroke="none">
<path d="M2191 13590 c-73 -27 -135 -80 -165 -143 -79 -164 -12 -356 149 -429
71 -32 238 -32 307 -1 43 20 77 57 64 71 -4 3 -28 -2 -54 -11 -114 -39 -202
-30 -271 30 -68 58 -86 102 -86 213 0 82 3 101 24 137 28 48 61 75 115 93 51
17 137 7 181 -20 30 -19 35 -27 35 -61 0 -32 4 -39 19 -39 23 0 29 15 33 90
l3 55 -40 14 c-22 8 -89 16 -150 17 -90 3 -120 0 -164 -16z"/>
<path d="M3865 13546 c-88 -28 -125 -59 -125 -104 0 -30 45 -64 102 -77 l53
-12 3 -2549 c2 -1781 0 -2564 -8 -2599 -13 -63 -41 -99 -105 -133 -91 -50
-137 -151 -100 -223 10 -19 27 -44 38 -56 l20 -23 772 0 772 0 12 103 c27 221
127 423 248 498 33 20 33 20 60 1 134 -97 233 -302 250 -519 l6 -83 628 0
c393 0 638 4 654 10 17 6 33 26 46 54 18 42 19 67 17 593 l-3 548 -142 3 -141
3 -4 -193 c-2 -163 -6 -198 -21 -226 -24 -43 -69 -70 -131 -77 -77 -9 -654 -1
-631 8 11 5 65 27 120 49 399 160 727 510 864 923 22 66 43 139 47 163 l7 42
-357 0 -356 0 -36 -72 c-74 -148 -193 -282 -319 -357 -78 -47 -218 -98 -306
-112 -86 -13 -261 -6 -334 14 -146 40 -256 102 -366 205 -150 140 -231 300
-259 512 -33 243 68 523 251 696 303 284 745 310 1081 62 75 -55 143 -127 196
-205 l35 -53 368 0 c315 0 369 2 369 14 0 28 -53 163 -107 273 -192 388 -590
700 -1014 796 -197 45 -485 49 -664 9 -270 -60 -525 -191 -711 -365 l-74 -69
0 -1068 0 -1069 83 -71 c144 -125 345 -245 497 -296 30 -10 59 -22 64 -26 6
-4 -153 -8 -352 -8 l-362 0 1 1848 c0 1016 3 1840 6 1832 14 -39 44 -56 126
-74 l27 -6 0 -361 c0 -319 2 -360 15 -355 9 3 41 23 73 44 117 80 323 171 469
208 l73 18 2 224 3 224 54 19 c71 25 101 53 101 96 0 76 -83 93 -471 93 -271
0 -301 -2 -354 -20 -73 -25 -103 -45 -115 -73 -5 -13 -9 216 -9 568 l-1 590
52 19 c55 19 108 64 108 91 0 31 -53 72 -108 84 -76 16 -634 14 -687 -3z"/>
<path d="M2224 12753 c-9 -21 -59 -146 -112 -278 -92 -226 -99 -240 -125 -243
-19 -2 -27 -9 -27 -23 0 -18 6 -20 98 -17 78 2 97 6 97 18 0 10 -12 16 -32 18
-38 4 -40 13 -14 87 l18 50 105 3 105 3 21 -57 c28 -72 28 -82 -5 -86 -17 -2
-29 -10 -31 -20 -3 -16 8 -18 132 -18 115 0 136 2 136 15 0 9 -8 18 -17 21
-45 14 -30 -15 -202 392 -72 167 -74 172 -103 172 -25 0 -32 -6 -44 -37z m81
-314 c6 -18 0 -19 -74 -19 -45 0 -81 1 -81 3 0 4 40 103 67 167 l14 35 34 -84
c19 -46 37 -92 40 -102z"/>
<path d="M9155 12646 c-27 -13 -58 -32 -67 -42 -47 -54 -61 -151 -32 -225 23
-56 75 -91 192 -130 103 -34 162 -77 162 -117 0 -38 -19 -72 -52 -92 -71 -43
-160 -13 -235 79 -25 31 -50 66 -56 79 -20 43 -27 21 -27 -88 0 -60 3 -110 7
-110 3 0 14 6 22 14 14 12 27 12 91 1 98 -18 148 -18 198 -1 100 35 145 100
145 206 0 125 -43 167 -228 226 -128 40 -164 80 -133 149 24 52 107 71 174 39
29 -14 92 -86 130 -150 20 -33 24 -11 18 84 -5 66 -10 89 -18 83 -7 -6 -36 -4
-76 4 -97 21 -157 19 -215 -9z"/>
<path d="M10055 12654 c-82 -30 -125 -95 -125 -188 0 -121 42 -164 216 -220
103 -34 146 -68 146 -117 0 -47 -15 -75 -52 -94 -85 -44 -191 12 -275 145 -14
22 -29 40 -34 40 -8 0 -3 -209 5 -219 2 -2 10 4 20 13 9 9 24 15 33 12 53 -15
170 -27 208 -22 90 12 175 81 189 151 3 20 4 63 2 95 -7 101 -51 141 -208 189
-55 18 -112 42 -129 57 -70 59 -18 154 84 154 63 0 125 -48 185 -145 l25 -40
3 94 c1 51 0 96 -2 99 -3 3 -11 0 -18 -6 -10 -7 -30 -6 -73 4 -76 17 -149 17
-200 -2z"/>
<path d="M12710 12648 c-6 -13 -59 -156 -119 -318 -92 -251 -112 -295 -130
-298 -11 -2 -21 -8 -21 -13 0 -5 32 -9 70 -9 40 0 70 4 70 10 0 6 -16 10 -36
10 -30 0 -35 3 -29 18 4 9 17 46 30 82 13 36 26 73 30 83 7 15 19 17 98 15
l91 -3 32 -90 c18 -49 33 -93 33 -97 1 -5 -12 -8 -29 -8 -16 0 -30 -4 -30 -10
0 -6 57 -10 150 -10 93 0 150 4 150 10 0 6 -10 10 -22 10 -21 0 -34 30 -139
318 l-115 317 -37 3 c-31 3 -39 -1 -47 -20z m40 -390 c0 -4 -36 -8 -81 -8 -66
0 -80 3 -76 14 3 8 23 62 44 121 l37 106 38 -112 c21 -63 38 -117 38 -121z"/>
<path d="M9570 12650 c0 -5 11 -10 25 -10 l25 0 0 -305 0 -305 -25 0 c-14 0
-25 -4 -25 -10 0 -6 53 -10 140 -10 87 0 140 4 140 10 0 6 -11 10 -25 10 l-25
0 0 305 0 305 25 0 c14 0 25 5 25 10 0 6 -53 10 -140 10 -87 0 -140 -4 -140
-10z"/>
<path d="M10476 12608 c-9 -78 -7 -178 3 -178 5 0 15 17 22 38 34 104 87 172
135 172 l24 0 0 -305 0 -305 -40 0 c-22 0 -40 -4 -40 -10 0 -6 63 -10 170 -10
107 0 170 4 170 10 0 6 -18 10 -40 10 l-40 0 0 306 0 307 36 -6 c57 -9 74 -32
128 -169 8 -21 19 -38 23 -38 4 0 7 52 5 115 l-3 115 -273 0 -273 0 -7 -52z"/>
<path d="M11090 12650 c0 -5 11 -10 25 -10 l25 0 0 -305 0 -305 -25 0 c-14 0
-25 -4 -25 -10 0 -6 92 -10 255 -10 l255 0 0 100 c0 60 -4 100 -10 100 -5 0
-10 -6 -10 -13 0 -7 -13 -34 -29 -59 -37 -59 -102 -97 -176 -105 l-55 -6 0
152 0 151 25 0 c55 0 84 -26 117 -105 12 -28 13 -26 16 43 2 40 2 103 0 140
l-3 67 -22 -47 c-23 -49 -62 -78 -108 -78 l-25 0 0 145 0 145 39 0 c83 0 141
-37 180 -115 38 -77 47 -61 34 68 l-6 67 -238 0 c-153 0 -239 -4 -239 -10z"/>
<path d="M11670 12650 c0 -5 11 -10 25 -10 l25 0 0 -305 0 -305 -25 0 c-14 0
-25 -4 -25 -10 0 -6 28 -10 65 -10 37 0 65 4 65 10 0 6 -11 10 -25 10 l-25 0
0 282 c0 155 2 279 4 277 2 -2 39 -133 82 -291 l78 -288 57 0 c46 0 59 3 63
18 2 9 32 136 66 282 33 146 63 270 65 275 2 6 4 -117 4 -272 l1 -283 -25 0
c-14 0 -25 -4 -25 -10 0 -6 55 -10 146 -10 94 0 143 4 139 10 -3 6 -17 10 -31
10 l-24 0 0 305 0 305 24 0 c14 0 28 5 31 10 4 7 -35 10 -121 8 l-128 -3 -52
-221 c-28 -121 -53 -227 -56 -234 -2 -7 -31 92 -64 221 l-61 234 -126 3 c-82
2 -127 -1 -127 -8z"/>
<path d="M13260 12650 c0 -5 14 -10 30 -10 l30 0 0 -305 0 -305 -30 0 c-16 0
-30 -4 -30 -10 0 -16 313 -12 393 5 131 27 208 91 238 195 15 56 15 191 0 246
-26 95 -108 161 -230 184 -71 13 -401 13 -401 0z m365 -24 c22 -10 42 -29 57
-58 22 -40 23 -54 23 -228 0 -173 -1 -188 -23 -227 -26 -51 -82 -83 -142 -83
l-40 0 0 305 0 305 45 0 c25 0 61 -6 80 -14z"/>
<path d="M13960 12650 c0 -5 14 -10 30 -10 l30 0 0 -305 0 -305 -30 0 c-16 0
-30 -4 -30 -10 0 -6 91 -10 254 -10 l253 0 7 53 c8 74 7 147 -2 147 -5 0 -17
-18 -27 -41 -36 -78 -131 -139 -219 -139 l-26 0 0 151 0 152 36 -6 c46 -8 81
-40 96 -89 6 -21 15 -38 20 -38 4 0 8 61 8 135 0 74 -4 135 -8 135 -4 0 -13
-15 -20 -33 -16 -46 -52 -77 -96 -84 l-36 -6 0 148 0 148 54 -6 c30 -3 67 -12
84 -21 28 -15 92 -100 92 -124 0 -7 5 -12 10 -12 6 0 10 37 10 90 l0 90 -245
0 c-157 0 -245 -4 -245 -10z"/>
<path d="M5910 12283 c-89 -15 -140 -49 -140 -94 0 -35 47 -73 112 -90 l48
-13 2 -214 3 -215 89 -18 c133 -27 267 -73 402 -140 67 -32 124 -59 128 -59 3
0 6 144 6 320 l0 320 28 6 c62 14 90 26 112 49 20 21 22 30 14 52 -12 34 -62
69 -127 88 -41 12 -111 15 -351 14 -166 -1 -312 -4 -326 -6z"/>
<path d="M1960 11941 c0 -15 8 -21 33 -23 l32 -3 6 -215 c3 -120 10 -226 16
-240 30 -68 116 -110 228 -110 119 0 209 57 234 147 6 21 11 117 11 213 0 96
4 180 8 187 4 6 20 17 36 22 54 21 24 36 -77 39 -92 3 -97 2 -97 -18 0 -14 7
-20 23 -20 48 0 49 -4 45 -218 l-3 -202 -32 -32 c-29 -29 -40 -33 -100 -36
-51 -2 -77 1 -103 15 -54 28 -61 63 -58 282 l3 186 33 3 c24 2 32 8 32 23 0
18 -8 19 -135 19 -127 0 -135 -1 -135 -19z"/>
<path d="M10050 11618 c-6 -13 -59 -156 -119 -318 -92 -251 -112 -295 -130
-298 -11 -2 -21 -8 -21 -13 0 -5 32 -9 70 -9 40 0 70 4 70 10 0 6 -16 10 -36
10 -30 0 -35 3 -29 18 4 9 17 46 30 82 13 36 26 73 30 83 7 15 19 17 98 15
l91 -3 32 -90 c18 -49 33 -93 33 -97 1 -5 -12 -8 -29 -8 -16 0 -30 -4 -30 -10
0 -6 57 -10 150 -10 93 0 150 4 150 10 0 6 -10 10 -22 10 -21 0 -34 30 -139
318 l-115 317 -37 3 c-31 3 -39 -1 -47 -20z m40 -390 c0 -4 -36 -8 -81 -8 -66
0 -80 3 -76 14 3 8 23 62 44 121 l37 106 38 -112 c21 -63 38 -117 38 -121z"/>
<path d="M12305 11626 c-132 -42 -198 -123 -216 -265 -10 -80 4 -188 30 -239
63 -123 209 -175 390 -138 59 12 86 14 95 6 10 -8 15 11 20 91 4 56 4 104 0
108 -4 3 -8 1 -11 -5 -16 -44 -85 -142 -117 -166 -68 -49 -145 -28 -185 51
-42 81 -53 309 -21 432 26 100 108 146 187 104 32 -18 105 -113 118 -155 13
-40 25 -19 25 43 0 88 -10 140 -24 128 -7 -6 -35 -4 -76 4 -80 18 -162 18
-215 1z"/>
<path d="M14082 11423 c-45 -120 -98 -264 -119 -320 -32 -90 -40 -103 -60
-103 -13 0 -23 -4 -23 -10 0 -6 30 -10 70 -10 40 0 70 4 70 10 0 6 -13 10 -30
10 -16 0 -30 3 -30 8 0 4 15 49 32 99 l33 93 92 0 91 0 31 -93 c17 -50 31 -95
31 -100 0 -4 -13 -7 -30 -7 -16 0 -30 -4 -30 -10 0 -6 57 -10 150 -10 93 0
150 4 150 10 0 6 -9 10 -19 10 -22 0 -14 -19 -151 358 l-103 282 -37 0 -37 0
-81 -217z m77 -75 c19 -57 36 -109 38 -115 4 -10 -16 -13 -79 -13 l-85 0 41
115 c23 63 43 115 46 115 3 0 21 -46 39 -102z"/>
<path d="M14681 11614 c-77 -39 -106 -87 -106 -178 0 -118 45 -167 200 -216
91 -29 140 -57 154 -87 44 -96 -62 -175 -174 -129 -40 17 -117 95 -148 149
-11 20 -24 37 -29 37 -9 0 -11 -143 -2 -189 6 -28 8 -30 23 -17 14 13 28 13
112 -1 118 -19 173 -12 236 30 77 53 110 147 83 243 -20 72 -65 108 -180 145
-54 17 -115 41 -137 53 -34 20 -38 26 -41 67 -3 41 0 49 28 73 36 30 103 35
149 12 29 -16 85 -79 116 -133 11 -18 23 -33 27 -33 9 0 10 99 2 153 -5 26
-10 34 -18 28 -7 -6 -35 -4 -76 4 -101 22 -158 19 -219 -11z"/>
<path d="M16385 11626 c-89 -28 -145 -75 -186 -156 -30 -61 -39 -221 -15 -302
44 -154 202 -225 405 -184 59 12 86 14 96 6 9 -8 14 -5 19 12 9 35 7 188 -2
188 -5 0 -17 -19 -28 -42 -79 -176 -217 -211 -285 -71 -23 45 -24 58 -24 233
0 169 2 189 22 232 23 51 62 78 113 78 63 0 114 -46 161 -144 13 -25 27 -46
31 -46 4 0 8 45 8 100 0 96 -4 111 -25 91 -6 -6 -33 -4 -70 4 -73 18 -166 18
-220 1z"/>
<path d="M17576 11616 c-73 -31 -119 -74 -154 -146 -25 -50 -27 -65 -27 -170
0 -99 3 -122 23 -165 30 -65 73 -108 136 -137 72 -32 208 -32 284 2 110 48
166 153 166 310 -1 153 -46 244 -148 294 -84 43 -196 47 -280 12z m198 -26
c35 -42 40 -79 40 -285 -1 -250 -18 -302 -105 -312 -38 -4 -50 -1 -76 21 -43
36 -53 91 -53 297 0 253 21 309 119 309 43 0 53 -4 75 -30z"/>
<path d="M9010 11620 c0 -5 11 -10 25 -10 l25 0 0 -305 0 -305 -25 0 c-14 0
-25 -4 -25 -10 0 -6 28 -10 65 -10 37 0 65 4 65 10 0 6 -11 10 -25 10 l-25 0
0 282 c0 155 2 279 4 277 2 -2 39 -133 82 -291 l78 -288 57 0 c46 0 59 3 63
18 2 9 32 136 66 282 33 146 63 270 65 275 2 6 4 -117 4 -272 l1 -283 -25 0
c-14 0 -25 -4 -25 -10 0 -6 55 -10 146 -10 94 0 143 4 139 10 -3 6 -17 10 -31
10 l-24 0 0 305 0 305 24 0 c14 0 28 5 31 10 4 7 -35 10 -121 8 l-128 -3 -52
-221 c-28 -121 -53 -227 -56 -234 -2 -7 -31 92 -64 221 l-61 234 -126 3 c-82
2 -127 -1 -127 -8z"/>
<path d="M10456 11578 c-9 -78 -7 -178 3 -178 5 0 15 17 22 38 34 104 87 172
135 172 l24 0 0 -305 0 -305 -40 0 c-22 0 -40 -4 -40 -10 0 -6 63 -10 170 -10
107 0 170 4 170 10 0 6 -18 10 -40 10 l-40 0 0 306 0 307 36 -6 c57 -9 74 -32
128 -169 8 -21 19 -38 23 -38 4 0 7 52 5 115 l-3 115 -273 0 -273 0 -7 -52z"/>
<path d="M11064 11621 c4 -6 18 -11 32 -11 l24 0 0 -305 0 -305 -24 0 c-14 0
-28 -4 -31 -10 -4 -7 48 -10 150 -10 102 0 154 3 150 10 -3 6 -17 10 -31 10
l-24 0 0 155 0 155 33 0 c17 0 37 -4 44 -8 22 -14 33 -63 33 -149 0 -130 25
-169 119 -180 70 -8 120 11 137 53 8 18 14 44 13 56 -1 18 -4 15 -17 -15 -11
-29 -20 -37 -36 -35 -19 3 -22 11 -27 103 -4 58 -12 110 -20 123 -15 23 -65
51 -96 53 -10 1 1 7 23 14 23 7 52 18 64 25 46 25 64 126 35 196 -11 26 -27
40 -62 57 -44 20 -66 22 -272 25 -159 3 -221 1 -217 -7z m347 -30 c18 -14 23
-31 27 -79 9 -121 -23 -182 -93 -182 l-35 0 0 140 0 140 39 0 c23 0 48 -8 62
-19z"/>
<path d="M11740 11620 c0 -5 11 -10 25 -10 l25 0 0 -305 0 -305 -25 0 c-14 0
-25 -4 -25 -10 0 -6 53 -10 140 -10 87 0 140 4 140 10 0 6 -11 10 -25 10 l-25
0 0 305 0 305 25 0 c14 0 25 5 25 10 0 6 -53 10 -140 10 -87 0 -140 -4 -140
-10z"/>
<path d="M12705 11620 c3 -5 17 -10 30 -10 l24 0 3 -253 3 -254 28 -40 c43
-63 108 -87 227 -87 117 0 157 15 197 75 l28 42 3 259 3 258 24 0 c13 0 27 5
30 10 4 6 -20 10 -64 10 -41 0 -71 -4 -71 -10 0 -5 14 -10 31 -10 l30 0 -3
-247 c-3 -285 -9 -308 -81 -345 -48 -24 -127 -20 -160 9 -43 38 -47 69 -47
333 l0 250 30 0 c17 0 30 5 30 10 0 6 -57 10 -151 10 -97 0 -148 -4 -144 -10z"/>
<path d="M13340 11620 c0 -5 11 -10 25 -10 l25 0 0 -305 0 -305 -25 0 c-14 0
-25 -4 -25 -10 0 -6 88 -10 245 -10 l244 0 5 33 c13 82 16 187 7 187 -6 0 -22
-22 -36 -50 -50 -98 -115 -150 -189 -150 l-36 0 0 305 0 305 45 0 c25 0 45 5
45 10 0 6 -62 10 -165 10 -103 0 -165 -4 -165 -10z"/>
<path d="M15260 11620 c0 -5 14 -10 30 -10 l30 0 0 -305 0 -305 -30 0 c-16 0
-30 -4 -30 -10 0 -6 90 -10 249 -10 l249 0 7 105 c4 58 5 108 2 111 -3 3 -13
-7 -23 -23 -84 -139 -124 -172 -206 -173 l-38 0 0 305 0 305 50 0 c28 0 50 5
50 10 0 6 -63 10 -170 10 -107 0 -170 -4 -170 -10z"/>
<path d="M15820 11620 c0 -5 11 -10 25 -10 l25 0 0 -305 0 -305 -25 0 c-14 0
-25 -4 -25 -10 0 -6 53 -10 140 -10 87 0 140 4 140 10 0 6 -11 10 -25 10 l-25
0 0 305 0 305 25 0 c14 0 25 5 25 10 0 6 -53 10 -140 10 -87 0 -140 -4 -140
-10z"/>
<path d="M16790 11620 c0 -5 11 -10 25 -10 l25 0 0 -305 0 -305 -25 0 c-14 0
-25 -4 -25 -10 0 -6 92 -10 255 -10 l255 0 0 54 c0 29 3 74 6 100 8 55 -9 63
-29 14 -34 -80 -108 -134 -198 -145 l-49 -6 0 153 0 153 36 -6 c47 -8 69 -29
90 -83 9 -24 21 -44 25 -44 5 0 9 61 9 135 0 74 -4 135 -8 135 -5 0 -16 -17
-25 -39 -22 -50 -46 -71 -91 -78 l-36 -6 0 147 0 146 33 0 c82 0 153 -49 186
-128 7 -17 17 -32 22 -32 10 0 12 102 3 149 l-6 31 -239 0 c-153 0 -239 -4
-239 -10z"/>
<path d="M2165 11136 c-92 -29 -149 -78 -187 -161 -18 -40 -22 -68 -23 -140 0
-79 4 -97 28 -147 35 -72 95 -124 165 -144 l53 -16 -55 -35 c-37 -22 -56 -41
-56 -54 0 -22 6 -23 40 -4 38 22 75 18 210 -20 68 -19 130 -35 137 -35 26 0
103 55 103 74 0 15 -5 17 -27 10 -44 -12 -69 -8 -175 27 l-99 33 59 12 c108
22 175 71 223 164 21 39 24 59 24 155 0 102 -2 113 -28 157 -53 92 -147 138
-275 137 -42 0 -95 -6 -117 -13z m200 -66 c22 -14 44 -41 62 -78 24 -50 28
-68 28 -152 0 -157 -49 -240 -150 -256 -131 -19 -215 84 -215 265 0 131 30
198 104 233 51 23 122 18 171 -12z"/>
<path d="M10698 10538 c-217 -587 -209 -568 -234 -568 -13 0 -24 -4 -24 -10 0
-6 32 -10 76 -10 47 0 73 4 69 10 -3 6 -19 10 -36 10 -16 0 -29 3 -28 8 0 4
15 48 33 97 l32 90 94 0 93 0 33 -97 33 -98 -35 0 c-19 0 -34 -4 -34 -10 0 -6
58 -10 155 -10 97 0 155 4 155 10 0 6 -10 10 -23 10 -22 0 -32 23 -127 283
-145 398 -126 357 -169 357 -36 0 -37 -1 -63 -72z m62 -340 c0 -4 -36 -8 -80
-8 -44 0 -80 3 -80 8 0 4 18 56 40 116 22 61 40 112 41 115 1 8 79 -221 79
-231z"/>
<path d="M12913 10591 c-137 -47 -203 -155 -203 -330 0 -238 164 -358 419
-307 65 13 86 14 97 5 8 -6 17 -10 20 -7 2 3 3 52 2 109 l-3 104 -37 -65 c-49
-87 -95 -130 -146 -137 -57 -8 -96 19 -130 87 -25 51 -27 67 -30 201 -5 183
10 257 63 307 78 72 171 26 249 -125 9 -18 20 -33 24 -33 4 0 6 45 4 100 -3
87 -5 99 -19 92 -9 -6 -40 -4 -77 4 -85 18 -172 17 -233 -5z"/>
<path d="M14510 10588 c-6 -13 -59 -156 -119 -318 -92 -251 -112 -295 -130
-298 -11 -2 -21 -8 -21 -13 0 -5 32 -9 70 -9 40 0 70 4 70 10 0 6 -16 10 -36
10 -30 0 -35 3 -29 18 4 9 17 46 30 82 13 36 26 73 30 83 7 15 19 17 98 15
l91 -3 32 -90 c18 -49 33 -93 33 -97 1 -5 -12 -8 -29 -8 -16 0 -30 -4 -30 -10
0 -6 57 -10 150 -10 93 0 150 4 150 10 0 6 -10 10 -22 10 -21 0 -34 30 -139
318 l-115 317 -37 3 c-31 3 -39 -1 -47 -20z m40 -390 c0 -4 -36 -8 -81 -8 -66
0 -80 3 -76 14 3 8 23 62 44 121 l37 106 38 -112 c21 -63 38 -117 38 -121z"/>
<path d="M15135 10596 c-132 -42 -198 -123 -216 -265 -10 -80 4 -188 30 -239
63 -123 209 -175 390 -138 59 12 86 14 95 6 10 -8 15 11 20 91 4 56 4 104 0
108 -4 3 -8 1 -11 -5 -16 -44 -85 -142 -117 -166 -68 -49 -145 -28 -185 51
-42 81 -53 309 -21 432 26 100 108 146 187 104 32 -18 105 -113 118 -155 13
-40 25 -19 25 43 0 88 -10 140 -24 128 -7 -6 -35 -4 -76 4 -80 18 -162 18
-215 1z"/>
<path d="M16094 10596 c-71 -23 -129 -72 -166 -140 -32 -60 -33 -63 -33 -186
0 -142 14 -187 76 -249 58 -58 110 -76 220 -76 85 1 102 4 155 30 114 57 159
156 152 329 -7 152 -52 232 -158 279 -57 26 -187 33 -246 13z m168 -26 c38
-29 48 -89 48 -284 0 -183 -10 -262 -38 -296 -22 -26 -83 -36 -122 -20 -58 24
-65 52 -68 281 -4 224 3 275 43 315 31 31 101 33 137 4z"/>
<path d="M9010 10591 c0 -6 14 -11 30 -11 l30 0 0 -305 0 -305 -30 0 c-16 0
-30 -4 -30 -10 0 -17 307 -12 392 5 166 35 237 121 246 296 6 120 -14 186 -76
248 -74 74 -110 83 -354 89 -149 3 -208 1 -208 -7z m375 -35 c15 -10 37 -39
48 -64 20 -42 22 -64 22 -212 0 -156 -1 -168 -25 -214 -32 -63 -65 -88 -129
-94 l-51 -5 0 308 0 307 54 -4 c30 -2 66 -12 81 -22z"/>
<path d="M9710 10590 c0 -5 11 -10 25 -10 l25 0 0 -305 0 -305 -25 0 c-14 0
-25 -4 -25 -10 0 -6 92 -10 255 -10 l255 0 0 54 c0 29 3 74 6 100 8 55 -9 63
-29 14 -34 -80 -108 -134 -198 -145 l-49 -6 0 153 0 153 36 -6 c47 -8 69 -29
90 -83 9 -24 21 -44 25 -44 5 0 9 61 9 135 0 74 -4 135 -8 135 -5 0 -16 -17
-25 -39 -22 -50 -46 -71 -91 -78 l-36 -6 0 147 0 146 33 0 c82 0 153 -49 186
-128 7 -17 17 -32 22 -32 10 0 12 102 3 149 l-6 31 -239 0 c-153 0 -239 -4
-239 -10z"/>
<path d="M11110 10590 c0 -5 11 -10 25 -10 l25 0 0 -305 0 -305 -25 0 c-14 0
-25 -4 -25 -10 0 -6 27 -10 60 -10 33 0 60 4 60 10 0 6 -11 10 -25 10 l-25 0
0 287 c0 157 3 283 7 279 4 -4 76 -136 159 -294 l152 -287 66 -3 66 -3 0 316
0 315 25 0 c14 0 25 5 25 10 0 6 -29 10 -66 10 -41 0 -63 -4 -59 -10 3 -5 17
-10 31 -10 l24 0 0 -222 c-1 -180 -3 -219 -13 -203 -7 11 -61 115 -122 230
l-110 210 -127 3 c-83 2 -128 -1 -128 -8z"/>
<path d="M11746 10548 c-9 -78 -7 -178 3 -178 5 0 15 17 22 38 34 104 87 172
135 172 l24 0 0 -305 0 -305 -40 0 c-22 0 -40 -4 -40 -10 0 -6 63 -10 170 -10
107 0 170 4 170 10 0 6 -18 10 -40 10 l-40 0 0 306 0 307 36 -6 c57 -9 74 -32
128 -169 8 -21 19 -38 23 -38 4 0 7 52 5 115 l-3 115 -273 0 -273 0 -7 -52z"/>
<path d="M12365 10590 c3 -5 15 -10 26 -10 18 0 19 -10 19 -305 0 -295 -1
-305 -19 -305 -11 0 -23 -4 -26 -10 -4 -6 45 -10 139 -10 91 0 146 4 146 10 0
6 -11 10 -25 10 l-25 0 0 305 0 305 25 0 c14 0 25 5 25 10 0 6 -55 10 -146 10
-94 0 -143 -4 -139 -10z"/>
<path d="M13340 10590 c0 -5 11 -10 25 -10 l25 0 0 -305 0 -305 -25 0 c-14 0
-25 -4 -25 -10 0 -6 53 -10 140 -10 87 0 140 4 140 10 0 6 -11 10 -25 10 l-25
0 0 305 0 305 25 0 c14 0 25 5 25 10 0 6 -53 10 -140 10 -87 0 -140 -4 -140
-10z"/>
<path d="M13660 10590 c0 -5 14 -10 30 -10 l30 0 0 -305 0 -305 -30 0 c-16 0
-30 -4 -30 -10 0 -6 65 -10 175 -10 110 0 175 4 175 10 0 6 -25 10 -55 10
l-55 0 0 125 0 125 48 0 c61 0 160 25 192 49 43 31 64 78 64 145 1 104 -45
154 -158 175 -76 14 -386 15 -386 1z m334 -43 c17 -23 21 -43 21 -115 0 -147
-14 -179 -87 -196 l-28 -6 0 175 0 176 37 -3 c26 -2 42 -11 57 -31z"/>
<path d="M15540 10590 c0 -5 11 -10 25 -10 l25 0 0 -305 0 -305 -25 0 c-14 0
-25 -4 -25 -10 0 -6 53 -10 140 -10 87 0 140 4 140 10 0 6 -11 10 -25 10 l-25
0 0 305 0 305 25 0 c14 0 25 5 25 10 0 6 -53 10 -140 10 -87 0 -140 -4 -140
-10z"/>
<path d="M16570 10590 c0 -5 11 -10 25 -10 l25 0 0 -305 0 -305 -25 0 c-14 0
-25 -4 -25 -10 0 -6 27 -10 60 -10 33 0 60 4 60 10 0 6 -11 10 -25 10 l-25 0
0 287 c0 157 3 283 7 279 4 -4 76 -136 159 -294 l152 -287 66 -3 66 -3 0 316
0 315 25 0 c14 0 25 5 25 10 0 6 -29 10 -66 10 -41 0 -63 -4 -59 -10 3 -5 17
-10 31 -10 l24 0 0 -222 c-1 -180 -3 -219 -13 -203 -7 11 -61 115 -122 230
l-110 210 -127 3 c-83 2 -128 -1 -128 -8z"/>
<path d="M5275 10478 c-107 -76 -206 -209 -246 -329 -20 -63 -24 -93 -24 -199
1 -109 4 -134 27 -198 33 -92 79 -168 139 -231 48 -50 125 -111 141 -111 4 0
8 245 8 545 0 300 -3 545 -7 545 -5 0 -21 -10 -38 -22z"/>
<path d="M6020 9955 c0 -321 4 -545 9 -545 15 0 102 73 148 122 224 245 215
626 -22 864 -38 39 -85 79 -102 88 l-33 17 0 -546z"/>
<path d="M1960 10301 c0 -15 8 -21 33 -23 l32 -3 6 -216 c7 -226 9 -240 57
-292 53 -57 223 -77 312 -36 105 48 113 68 120 315 6 210 11 234 51 234 12 0
19 7 19 20 0 19 -7 20 -100 20 -93 0 -100 -1 -100 -20 0 -14 7 -20 23 -20 51
-1 52 -6 52 -207 0 -209 -8 -238 -65 -268 -38 -20 -142 -20 -180 0 -49 26 -54
45 -58 246 -4 203 1 229 43 229 18 0 25 5 25 20 0 19 -7 20 -135 20 -127 0
-135 -1 -135 -19z"/>
<path d="M9245 9566 c-89 -28 -145 -75 -186 -156 -30 -61 -39 -221 -15 -302
44 -154 202 -225 405 -184 59 12 86 14 96 6 9 -8 14 -5 19 12 9 35 7 188 -2
188 -5 0 -17 -19 -28 -42 -79 -176 -217 -211 -285 -71 -23 45 -24 58 -24 233
0 169 2 189 22 232 23 51 62 78 113 78 63 0 114 -46 161 -144 13 -25 27 -46
31 -46 4 0 8 45 8 100 0 96 -4 111 -25 91 -6 -6 -33 -4 -70 4 -73 18 -166 18
-220 1z"/>
<path d="M10392 9363 c-45 -120 -98 -264 -119 -320 -32 -90 -40 -103 -60 -103
-13 0 -23 -4 -23 -10 0 -6 30 -10 70 -10 40 0 70 4 70 10 0 6 -13 10 -30 10
-16 0 -30 3 -30 8 0 4 15 49 32 99 l33 93 92 0 91 0 31 -93 c17 -50 31 -95 31
-100 0 -4 -13 -7 -30 -7 -16 0 -30 -4 -30 -10 0 -6 57 -10 150 -10 93 0 150 4
150 10 0 6 -9 10 -19 10 -22 0 -14 -19 -151 358 l-103 282 -37 0 -37 0 -81
-217z m77 -75 c19 -57 36 -109 38 -115 4 -10 -16 -13 -79 -13 l-85 0 41 115
c23 63 43 115 46 115 3 0 21 -46 39 -102z"/>
<path d="M13378 9508 c-217 -587 -209 -568 -234 -568 -13 0 -24 -4 -24 -10 0
-6 32 -10 76 -10 47 0 73 4 69 10 -3 6 -19 10 -36 10 -16 0 -29 3 -28 8 0 4
15 48 33 97 l32 90 94 0 93 0 33 -97 33 -98 -35 0 c-19 0 -34 -4 -34 -10 0 -6
58 -10 155 -10 97 0 155 4 155 10 0 6 -10 10 -23 10 -22 0 -32 23 -127 283
-145 398 -126 357 -169 357 -36 0 -37 -1 -63 -72z m62 -340 c0 -4 -36 -8 -80
-8 -44 0 -80 3 -80 8 0 4 18 56 40 116 22 61 40 112 41 115 1 8 79 -221 79
-231z"/>
<path d="M17702 9363 c-45 -120 -98 -264 -119 -320 -32 -90 -40 -103 -60 -103
-13 0 -23 -4 -23 -10 0 -6 30 -10 70 -10 40 0 70 4 70 10 0 6 -13 10 -30 10
-16 0 -30 3 -30 8 0 4 15 49 32 99 l33 93 92 0 91 0 31 -93 c17 -50 31 -95 31
-100 0 -4 -13 -7 -30 -7 -16 0 -30 -4 -30 -10 0 -6 57 -10 150 -10 93 0 150 4
150 10 0 6 -9 10 -19 10 -22 0 -14 -19 -151 358 l-103 282 -37 0 -37 0 -81
-217z m77 -75 c19 -57 36 -109 38 -115 4 -10 -16 -13 -79 -13 l-85 0 41 115
c23 63 43 115 46 115 3 0 21 -46 39 -102z"/>
<path d="M9650 9560 c0 -5 11 -10 25 -10 l25 0 0 -305 0 -305 -25 0 c-14 0
-25 -4 -25 -10 0 -6 88 -10 245 -10 l244 0 5 33 c13 82 16 187 7 187 -6 0 -22
-22 -36 -50 -50 -98 -115 -150 -189 -150 l-36 0 0 305 0 305 45 0 c25 0 45 5
45 10 0 6 -62 10 -165 10 -103 0 -165 -4 -165 -10z"/>
<path d="M10850 9560 c0 -5 11 -10 25 -10 l25 0 0 -223 c0 -257 9 -308 63
-353 56 -47 93 -58 202 -58 111 0 144 11 188 63 38 46 47 111 47 351 l0 220
25 0 c14 0 25 5 25 10 0 6 -30 10 -71 10 -44 0 -68 -4 -64 -10 3 -5 17 -10 31
-10 l24 0 0 -248 c0 -270 -4 -292 -62 -335 -35 -26 -105 -33 -150 -14 -68 29
-73 48 -76 340 l-3 257 30 0 c17 0 31 5 31 10 0 6 -55 10 -145 10 -90 0 -145
-4 -145 -10z"/>
<path d="M11480 9560 c0 -5 14 -10 30 -10 l30 0 0 -305 0 -305 -30 0 c-16 0
-30 -4 -30 -10 0 -16 313 -12 393 5 131 27 208 91 238 195 15 56 15 191 0 246
-26 95 -108 161 -230 184 -71 13 -401 13 -401 0z m365 -24 c22 -10 42 -29 57
-58 22 -40 23 -54 23 -228 0 -173 -1 -188 -23 -227 -26 -51 -82 -83 -142 -83
l-40 0 0 305 0 305 45 0 c25 0 61 -6 80 -14z"/>
<path d="M12190 9560 c0 -5 11 -10 25 -10 l25 0 0 -305 0 -305 -25 0 c-14 0
-25 -4 -25 -10 0 -6 53 -10 140 -10 87 0 140 4 140 10 0 6 -11 10 -25 10 l-25
0 0 305 0 305 25 0 c14 0 25 5 25 10 0 6 -53 10 -140 10 -87 0 -140 -4 -140
-10z"/>
<path d="M12520 9560 c0 -5 11 -10 25 -10 l25 0 0 -305 0 -305 -25 0 c-14 0
-25 -4 -25 -10 0 -6 29 -10 66 -10 41 0 63 4 59 10 -3 6 -17 10 -31 10 l-24 0
0 288 c1 254 2 285 15 268 8 -11 81 -145 162 -298 l146 -278 64 0 63 0 0 315
0 315 25 0 c14 0 25 5 25 10 0 6 -27 10 -60 10 -33 0 -60 -4 -60 -10 0 -5 11
-10 25 -10 l25 0 0 -222 0 -223 -43 80 c-24 44 -79 149 -123 232 l-79 153
-127 0 c-79 0 -128 -4 -128 -10z"/>
<path d="M13950 9560 c0 -5 11 -10 25 -10 l25 0 0 -223 c0 -257 9 -308 63
-353 56 -47 93 -58 202 -58 111 0 144 11 188 63 38 46 47 111 47 351 l0 220
25 0 c14 0 25 5 25 10 0 6 -30 10 -71 10 -44 0 -68 -4 -64 -10 3 -5 17 -10 31
-10 l24 0 0 -248 c0 -270 -4 -292 -62 -335 -35 -26 -105 -33 -150 -14 -68 29
-73 48 -76 340 l-3 257 30 0 c17 0 31 5 31 10 0 6 -55 10 -145 10 -90 0 -145
-4 -145 -10z"/>
<path d="M14580 9561 c0 -6 14 -11 30 -11 l30 0 0 -305 0 -305 -30 0 c-16 0
-30 -4 -30 -10 0 -6 57 -10 150 -10 93 0 150 4 150 10 0 6 -13 10 -30 10 l-30
0 0 155 0 155 39 0 c56 0 71 -25 71 -117 0 -102 16 -169 47 -192 53 -43 171
-37 204 9 20 28 35 90 22 90 -5 0 -13 -15 -18 -32 -7 -23 -17 -34 -32 -36 -13
-2 -23 -2 -24 0 0 2 -4 52 -8 111 -8 120 -17 138 -85 161 l-37 13 43 12 c55
16 86 45 98 92 22 80 -11 157 -79 187 -45 20 -481 32 -481 13z m345 -36 c23
-22 25 -32 25 -109 0 -76 -2 -87 -26 -115 -21 -25 -33 -31 -65 -31 l-39 0 0
140 0 140 40 0 c30 0 47 -7 65 -25z"/>
<path d="M15244 9561 c4 -6 18 -11 32 -11 l24 0 0 -305 0 -305 -24 0 c-14 0
-28 -4 -31 -10 -4 -7 48 -10 150 -10 102 0 154 3 150 10 -3 6 -17 10 -31 10
l-24 0 0 155 0 155 33 0 c17 0 37 -4 44 -8 22 -14 33 -63 33 -149 0 -130 25
-169 119 -180 70 -8 120 11 137 53 8 18 14 44 13 56 -1 18 -4 15 -17 -15 -11
-29 -20 -37 -36 -35 -19 3 -22 11 -27 103 -4 58 -12 110 -20 123 -15 23 -65
51 -96 53 -10 1 1 7 23 14 23 7 52 18 64 25 46 25 64 126 35 196 -11 26 -27
40 -62 57 -44 20 -66 22 -272 25 -159 3 -221 1 -217 -7z m347 -30 c18 -14 23
-31 27 -79 9 -121 -23 -182 -93 -182 l-35 0 0 140 0 140 39 0 c23 0 48 -8 62
-19z"/>
<path d="M15915 9560 c3 -5 17 -10 30 -10 l24 0 3 -253 3 -254 28 -40 c43 -63
108 -87 227 -87 117 0 157 15 197 75 l28 42 3 259 3 258 24 0 c13 0 27 5 30
10 4 6 -20 10 -64 10 -41 0 -71 -4 -71 -10 0 -5 14 -10 31 -10 l30 0 -3 -247
c-3 -285 -9 -308 -81 -345 -48 -24 -127 -20 -160 9 -43 38 -47 69 -47 333 l0
250 30 0 c17 0 30 5 30 10 0 6 -57 10 -151 10 -97 0 -148 -4 -144 -10z"/>
<path d="M16570 9478 c0 -51 -3 -103 -6 -115 -7 -27 14 -32 23 -5 21 63 70
156 91 173 14 10 38 19 53 19 l29 0 0 -305 0 -305 -40 0 c-22 0 -40 -4 -40
-10 0 -6 63 -10 170 -10 107 0 170 4 170 10 0 6 -18 10 -40 10 l-40 0 0 305 0
305 24 0 c42 0 83 -45 117 -130 18 -44 37 -80 41 -80 10 0 10 70 1 163 l-6 67
-273 0 -274 0 0 -92z"/>
<path d="M17190 9560 c0 -5 11 -10 25 -10 l25 0 0 -305 0 -305 -25 0 c-14 0
-25 -4 -25 -10 0 -6 53 -10 140 -10 87 0 140 4 140 10 0 6 -11 10 -25 10 l-25
0 0 305 0 305 25 0 c14 0 25 5 25 10 0 6 -53 10 -140 10 -87 0 -140 -4 -140
-10z"/>
<path d="M2040 9481 c0 -14 10 -21 35 -25 l35 -7 0 -249 c0 -239 -1 -250 -20
-260 -11 -6 -20 -17 -20 -26 0 -12 30 -14 213 -12 l212 3 3 73 c3 65 1 73 -14
70 -11 -2 -22 -18 -27 -38 -5 -19 -14 -38 -20 -42 -7 -4 -54 -8 -104 -8 l-93
0 0 115 0 115 58 0 c65 0 89 -13 94 -50 2 -14 11 -26 21 -28 16 -3 17 5 15 95
-2 79 -6 98 -18 98 -9 0 -17 -12 -20 -30 -5 -30 -6 -30 -78 -33 l-72 -3 0 100
0 99 38 6 c20 3 62 2 92 -2 53 -7 55 -8 60 -42 3 -22 11 -35 20 -35 17 0 28
34 29 93 l1 42 -220 0 c-209 0 -220 -1 -220 -19z"/>
<path d="M4560 8626 l0 -96 115 0 c63 0 115 2 115 4 0 2 -24 19 -52 38 -29 20
-81 61 -115 93 l-63 57 0 -96z"/>
<path d="M6695 8669 c-28 -28 -78 -69 -113 -92 l-63 -42 107 -3 c59 -1 114 0
121 2 9 4 13 30 13 96 0 49 -4 90 -8 90 -4 0 -30 -23 -57 -51z"/>
<path d="M1960 8662 c0 -12 11 -21 33 -27 l32 -10 0 -245 0 -245 -32 -10 c-22
-6 -33 -15 -33 -27 0 -16 11 -18 100 -18 91 0 100 2 100 19 0 14 -10 21 -35
25 l-35 7 0 200 0 201 67 -84 c69 -85 207 -250 273 -325 28 -33 44 -42 74 -45
l37 -3 -1 266 c0 232 2 269 15 283 9 9 25 16 36 16 12 0 19 7 19 20 0 20 -5
21 -97 18 -81 -3 -98 -6 -101 -19 -2 -12 7 -18 31 -23 44 -8 47 -22 47 -225
l-1 -156 -55 60 c-30 33 -109 129 -177 213 l-122 152 -87 0 c-78 0 -88 -2 -88
-18z"/>
<path d="M11280 8538 c-1 -2 -54 -145 -118 -318 -103 -277 -120 -315 -140
-318 -50 -7 -17 -22 48 -22 71 0 98 16 36 22 l-33 3 35 98 35 97 91 0 92 0 28
-87 c16 -49 31 -94 33 -100 4 -9 -5 -13 -26 -13 -17 0 -31 -4 -31 -10 0 -6 57
-10 150 -10 86 0 150 4 150 9 0 5 -10 11 -22 13 -18 3 -36 44 -129 298 -136
372 -121 340 -164 340 -19 0 -35 -1 -35 -2z m3 -310 l36 -108 -84 0 -84 0 39
111 c22 61 40 113 40 117 0 23 23 -29 53 -120z"/>
<path d="M9010 8521 c0 -6 14 -11 30 -11 l30 0 0 -305 0 -305 -30 0 c-16 0
-30 -4 -30 -10 0 -17 307 -12 392 5 166 35 237 121 246 296 6 120 -14 186 -76
248 -74 74 -110 83 -354 89 -149 3 -208 1 -208 -7z m375 -35 c15 -10 37 -39
48 -64 20 -42 22 -64 22 -212 0 -156 -1 -168 -25 -214 -32 -63 -65 -88 -129
-94 l-51 -5 0 308 0 307 54 -4 c30 -2 66 -12 81 -22z"/>
<path d="M9710 8520 c0 -5 11 -10 25 -10 l25 0 0 -305 0 -305 -25 0 c-14 0
-25 -4 -25 -10 0 -6 92 -10 255 -10 l255 0 0 54 c0 29 3 74 6 100 8 55 -9 63
-29 14 -34 -80 -108 -134 -198 -145 l-49 -6 0 153 0 153 36 -6 c47 -8 69 -29
90 -83 9 -24 21 -44 25 -44 5 0 9 61 9 135 0 74 -4 135 -8 135 -5 0 -16 -17
-25 -39 -22 -50 -46 -71 -91 -78 l-36 -6 0 147 0 146 33 0 c82 0 153 -49 186
-128 7 -17 17 -32 22 -32 10 0 12 102 3 149 l-6 31 -239 0 c-153 0 -239 -4
-239 -10z"/>
<path d="M10460 8520 c0 -5 11 -10 25 -10 l25 0 0 -305 0 -305 -25 0 c-14 0
-25 -4 -25 -10 0 -6 88 -10 244 -10 l244 0 7 78 c3 42 8 92 11 110 7 46 -10
40 -42 -15 -65 -112 -117 -152 -196 -153 l-38 0 0 305 0 305 50 0 c28 0 50 5
50 10 0 6 -62 10 -165 10 -103 0 -165 -4 -165 -10z"/>
<path d="M11640 8520 c0 -5 11 -10 24 -10 21 0 32 -24 141 -320 l118 -321 40
3 40 3 110 318 c102 293 112 317 134 317 13 0 23 5 23 10 0 6 -30 10 -70 10
-40 0 -70 -4 -70 -10 0 -5 16 -10 34 -10 l35 0 -50 -142 c-27 -79 -64 -183
-81 -232 l-32 -89 -76 229 -77 229 34 3 c18 2 33 7 33 13 0 5 -65 9 -155 9
-97 0 -155 -4 -155 -10z"/>
<path d="M12300 8520 c0 -5 11 -10 25 -10 l25 0 0 -305 0 -305 -25 0 c-14 0
-25 -4 -25 -10 0 -6 53 -10 140 -10 87 0 140 4 140 10 0 6 -11 10 -25 10 l-25
0 0 305 0 305 25 0 c14 0 25 5 25 10 0 6 -53 10 -140 10 -87 0 -140 -4 -140
-10z"/>
<path d="M12630 8520 c0 -5 11 -10 25 -10 l25 0 0 -305 0 -305 -25 0 c-14 0
-25 -4 -25 -10 0 -6 27 -10 60 -10 33 0 60 4 60 10 0 6 -11 10 -25 10 l-25 0
0 287 c0 157 3 283 7 279 4 -4 76 -136 159 -294 l152 -287 66 -3 66 -3 0 316
0 315 25 0 c14 0 25 5 25 10 0 6 -29 10 -66 10 -41 0 -63 -4 -59 -10 3 -5 17
-10 31 -10 l24 0 0 -222 c-1 -180 -3 -219 -13 -203 -7 11 -61 115 -122 230
l-110 210 -127 3 c-83 2 -128 -1 -128 -8z"/>
<path d="M5520 8253 c-48 -55 -113 -183 -136 -268 -9 -33 -18 -118 -21 -190
-5 -121 4 -210 34 -349 5 -25 3 -28 -12 -23 -91 36 -266 47 -336 22 -58 -21
-114 -77 -134 -133 -21 -63 -19 -190 5 -291 26 -107 36 -126 46 -86 11 48 52
123 73 135 58 31 148 -12 196 -94 31 -53 31 -67 0 -104 -22 -27 -129 -72 -170
-72 -32 0 -13 -18 29 -29 85 -21 153 -11 196 29 l29 27 12 -36 c14 -42 66
-121 79 -121 6 0 10 -35 10 -79 0 -73 2 -80 25 -95 67 -44 211 -41 269 5 24
19 26 27 26 92 0 62 3 74 26 98 14 14 35 52 48 82 l23 57 23 -25 c44 -46 143
-57 225 -25 l30 12 -65 17 c-117 31 -150 58 -150 121 0 22 12 43 42 76 50 54
85 74 131 74 44 0 73 -31 101 -111 13 -34 25 -58 28 -53 20 33 51 200 51 274
0 195 -93 280 -292 267 -47 -3 -113 -13 -145 -21 -32 -9 -60 -15 -62 -14 -1 2
4 32 11 68 7 36 19 111 25 168 20 181 -17 377 -95 507 -39 65 -102 135 -121
135 -7 0 -31 -21 -54 -47z"/>
<path d="M2040 7841 c0 -12 11 -21 33 -27 l32 -10 3 -247 c2 -238 2 -247 -18
-259 -11 -7 -20 -19 -20 -26 0 -10 45 -12 213 -10 l212 3 5 73 c5 68 4 73 -15
70 -13 -2 -21 -14 -26 -34 -10 -53 -13 -54 -120 -54 l-99 0 0 115 0 115 49 0
c74 0 101 -13 101 -50 0 -23 4 -30 20 -30 19 0 20 7 20 95 0 88 -1 95 -20 95
-16 0 -20 -7 -20 -30 l0 -30 -75 0 -75 0 0 100 0 101 93 -3 92 -3 5 -35 c7
-50 35 -52 44 -3 3 21 6 53 6 71 l0 32 -220 0 c-208 0 -220 -1 -220 -19z"/>
<path d="M2186 7030 c-61 -24 -84 -44 -107 -95 -31 -68 -22 -144 23 -192 22
-24 90 -46 171 -58 88 -12 126 -77 88 -149 -51 -94 -251 -61 -251 41 0 21 -6
36 -15 40 -9 3 -18 4 -20 2 -2 -3 -7 -39 -11 -81 l-7 -77 59 -17 c69 -20 162
-23 222 -5 113 32 181 163 138 265 -19 46 -58 73 -124 86 -139 28 -153 33
-167 53 -8 12 -15 38 -15 58 0 30 7 43 32 64 29 24 38 27 94 23 76 -5 104 -25
104 -75 0 -26 4 -33 19 -33 19 0 31 39 31 107 0 30 -3 33 -52 48 -69 20 -152
18 -212 -5z"/>
</g>
</svg>
